<?xml version="1.0" encoding="UTF-8"?>
<svg xmlns="http://www.w3.org/2000/svg" width="35" height="39" viewBox="0 0 35 39" fill="none">
  <path opacity="0.7" fill-rule="evenodd" clip-rule="evenodd" d="M29.9097 16.5181C29.776 16.349 29.5733 16.2496 29.3585 16.2486C29.1553 16.245 28.9403 16.3438 28.8042 16.5118L17.3833 30.6129C16.5866 29.1003 14.8682 26.1664 12.3668 23.6447C12.2339 23.5105 12.0532 23.4351 11.865 23.4351C11.6766 23.4351 11.496 23.5102 11.3628 23.6447C10.6133 24.3997 10.1025 24.9406 9.65163 25.4173C9.30461 25.7842 8.99488 26.1125 8.63889 26.4713C8.48971 26.6216 8.4144 26.8308 8.43353 27.0422C8.4529 27.2538 8.56406 27.4459 8.73769 27.5665C12.0021 29.8355 15.3014 36.3146 16.2354 38.247C16.4168 38.6217 16.7704 38.8687 17.1804 38.9083C17.2186 38.9119 17.2567 38.9139 17.2942 38.9139C17.6613 38.9139 18.0045 38.7423 18.2292 38.4406C20.3063 35.6497 27.5686 26.244 33.8085 22.3987C33.9945 22.2842 34.1178 22.0901 34.1435 21.8727C34.1691 21.6547 34.0943 21.4372 33.9403 21.2822C32.6461 19.9776 29.9368 16.5528 29.9097 16.5181Z" fill="#009D63"></path>
  <path opacity="0.9" fill-rule="evenodd" clip-rule="evenodd" d="M21.7828 15.3506C21.916 15.4848 22.0967 15.5603 22.2848 15.5603C22.473 15.5603 22.6537 15.4848 22.7869 15.3506C23.5339 14.5973 24.0442 14.0581 24.4941 13.5822C24.8426 13.2136 25.1536 12.8843 25.5112 12.5241C25.6604 12.3739 25.7357 12.1645 25.7166 11.9529C25.6972 11.7415 25.5858 11.5494 25.4127 11.4291C22.148 9.16004 18.8483 2.68073 17.9142 0.748289C17.7331 0.373859 17.3795 0.126354 16.969 0.0870557C16.5605 0.0472694 16.1682 0.22228 15.9204 0.554484C13.8429 3.34587 6.57957 12.7523 0.341101 16.5967C0.155359 16.7111 0.0318532 16.9049 0.00618347 17.1227C-0.0194863 17.3404 0.0553434 17.5581 0.209362 17.7134C1.5035 19.0178 4.21311 22.4428 4.24024 22.477C4.37391 22.6464 4.57636 22.7457 4.79141 22.7469H4.79553C5.00863 22.7469 5.2106 22.6503 5.34525 22.4838L16.7663 8.38213C17.5631 9.89474 19.2817 12.8287 21.7828 15.3506Z" fill="#00BE59"></path>
</svg>
