<?xml version="1.0" encoding="utf-8"?>
<!-- Generator: Adobe Illustrator 16.0.0, SVG Export Plug-In . SVG Version: 6.00 Build 0)  -->
<!DOCTYPE svg PUBLIC "-//W3C//DTD SVG 1.1//EN" "http://www.w3.org/Graphics/SVG/1.1/DTD/svg11.dtd">
<svg version="1.1" id="Layer_1" xmlns="http://www.w3.org/2000/svg" xmlns:xlink="http://www.w3.org/1999/xlink" x="0px" y="0px"
	 width="70px" height="26px" viewBox="0 0 70 26" enable-background="new 0 0 70 26" xml:space="preserve">
<path fill="#FFFFFF" d="M20.542,25.682l0.143,0.034c0,0-7.292-6.943-8.13-7.853C9.943,15.02,7.587,11.232,7.587,8.43
	c0-1.432,0.556-7.386,6.383-7.304c2.941,0.045,5.398,1.191,6.649,3.64c0,0,0.748-1.382,1.83-2.423
	c1.311-1.266,2.479-1.397,2.479-1.397S24.884,0.84,24.141,1.1c-0.995,0.346-1.909,1.06-2.416,1.544
	C21.27,3.083,20.62,3.869,20.62,3.869c-0.954-1.74-3.948-3.547-6.778-3.547c-3.899,0-8.765,3.07-8.765,7.789
	C5.077,15.286,15.56,22.17,20.542,25.682"/>
<path fill="#FFFFFF" d="M25.613,10.458c-0.034-0.526,1.135-2.57,3.941-2.57c2.705,0,3.907,2.473,3.907,4.118v6.163
	c0,2.141-1.435,1.479-1.435,2.141c0,0.331,0.165,0.395,0.601,0.395s1.134-0.132,2.405-0.132c1.637,0,2.472,0.132,2.908,0.132
	c0.334,0,0.567-0.063,0.567-0.462c0-0.891-2.607,0.063-2.607-2.206V12.6c0-2.502-0.97-6.162-5.448-6.162
	c-3.243,0-4.91,2.833-4.843,2.438V6.701c0-0.331-0.199-0.525-0.401-0.525c-0.771,0-1.439,1.056-4.212,1.646
	c-0.165,0.034-0.301,0.166-0.301,0.36c0,0.691,2.472-0.165,2.472,1.811v8.176c0,2.141-1.972,1.479-1.972,2.141
	c0,0.331,0.166,0.395,0.601,0.395c0.402,0,1.07-0.132,2.84-0.132c1.938,0,2.607,0.132,3.174,0.132c0.5,0,0.736-0.063,0.736-0.462
	c0-0.891-2.941,0.063-2.941-2.206v-7.578H25.613z"/>
<path fill="#FFFFFF" d="M43.407,14.479c1.334,0.628,3.039,1.153,3.039,2.9c0,1.714-1.337,2.701-2.972,2.701
	c-3.61,0-3.242-4.347-3.976-4.347c-0.499,0-0.402,1.056-0.402,1.615c0,2.604,0,2.635,0.737,2.635c0.8,0,1.401,0.953,3.742,0.953
	c2.472,0,4.509-2.043,4.509-4.512c0-2.108-0.869-3.129-2.772-3.919c-3.51-1.382-4.378-2.074-4.378-3.163
	c0-1.353,1.037-2.107,2.337-2.107c3.04,0,3.341,2.866,3.675,2.866c0.503,0,0.367-0.394,0.367-1.285c0-0.229,0.034-1.352-0.168-1.612
	c-0.398-0.496-2.706-0.758-3.272-0.758c-2.442,0-4.513,1.319-4.513,3.952C39.36,12.732,41.6,13.588,43.407,14.479"/>
<path fill="#FFFFFF" d="M57.147,20.242c-3.908,0-5.449-4.216-5.449-7.447c0-2.799,1.338-5.632,4.61-5.632
	c3.976,0,5.414,3.723,5.414,7.116C61.727,18.367,59.953,20.242,57.147,20.242 M56.847,20.937c4.109,0,7.216-3.096,7.216-7.149
	c0-6.128-4.711-7.345-7.251-7.345c-4.208,0-7.449,3.46-7.449,7.51C49.362,18.397,52.503,20.937,56.847,20.937"/>
<path fill="#FFFFFF" d="M63.785,6.799h0.199c0.165,0,0.319-0.007,0.319-0.191c0-0.154-0.139-0.181-0.267-0.181h-0.248v0.372H63.785z
	 M63.598,6.277h0.469c0.29,0,0.425,0.109,0.425,0.334c0,0.214-0.139,0.3-0.318,0.323l0.35,0.518h-0.203l-0.331-0.507h-0.199v0.507
	h-0.188V6.277H63.598z M63.999,7.724c0.481,0,0.854-0.372,0.854-0.864c0-0.481-0.372-0.854-0.854-0.854
	c-0.484,0-0.86,0.373-0.86,0.854C63.143,7.355,63.515,7.724,63.999,7.724 M63.999,5.856c0.567,0,1.045,0.436,1.045,1.003
	c0,0.579-0.473,1.014-1.045,1.014c-0.57,0-1.047-0.436-1.047-1.014C62.955,6.292,63.432,5.856,63.999,5.856"/>
</svg>
